<?xml version="1.0" encoding="utf-8"?>
<!-- Generator: Adobe Illustrator 27.1.1, SVG Export Plug-In . SVG Version: 6.00 Build 0)  -->
<svg version="1.1" id="escudo" xmlns="http://www.w3.org/2000/svg" xmlns:xlink="http://www.w3.org/1999/xlink" x="0px" y="0px"
	 viewBox="0 0 595.28 841.89" style="enable-background:new 0 0 595.28 841.89;" xml:space="preserve">
<style type="text/css">
	.st0{fill:#36398E;}
	.st1{fill:#383970;}
	.st2{fill:#FDFCFB;}
	.st3{fill:#BBE0E3;}
	.st4{fill:#E4221E;}
	.st5{fill:#020303;}
</style>
<g>
	<path class="st0" d="M153.71,127.22c2.3-0.06,4.59-0.16,6.89-0.16c95.61-0.01,191.23-0.01,286.84-0.02c5.11,0,5.11,0.01,5.11,5.34
		c0,59.47,0.19,118.93-0.14,178.4c-0.08,15.52-2.14,30.91-5.58,46.19c-4.14,18.4-10.53,35.87-19.42,52.36
		c-5.94,11.02-12.93,21.46-21.21,30.99c-9.4,10.82-19.83,20.42-31.68,28.5c-13.35,9.1-28,15.41-43.57,19.33
		c-7.06,1.78-14.5,2.05-21.76,3c-4.32-0.74-8.63-0.83-12.93,0.06c-6.65-0.04-13.14-1.28-19.62-2.64
		c-17.34-3.63-33.2-10.71-47.7-20.85c-6.08-4.25-11.6-9.15-17.14-14.11c-16.08-14.42-28-31.83-37.62-50.9
		c-9.11-18.05-15.09-37.23-18.3-57.19c-1.88-11.68-3.6-23.42-2.83-35.33c0.79-1.44,0.41-3.01,0.41-4.51
		c0.02-52.34,0.01-104.68,0.02-157.03C153.51,141.51,153.64,134.36,153.71,127.22z M378.29,163.61c1.09-0.66,0.79-1.76,0.8-2.73
		c0.02-6.05,0.04-12.11-0.03-18.16c-0.01-1.18,0.52-2.57-0.78-3.49c-2.25,0.31-4.93-1.25-6.69,1.17c-1.49,2.05-2.85,3.71-5.65,4.37
		c-3.19,0.75-1.24,3.78-1.26,5.71c-0.03,2,1.48-0.14,2.21,0.31c3.13,0.37,4.17,2,3.94,5.22c-0.18,2.5-0.93,5.25,0.72,7.66
		C373.79,163.65,376.04,163.63,378.29,163.61z M424.39,139.79c-3.77-1.48-7.69-0.48-11.53-0.62c-2-0.07-4.27-0.94-6.08,0.83
		c-0.18,5.29-0.18,5.29,5.27,5.29c0.64,0,1.28,0.03,1.91,0c3.02-0.12,2.87,1.42,1.49,3.18c-2.62,3.33-3.58,7.33-4.77,11.23
		c-0.35,1.14-0.72,2.94,0.25,3.59c1.61,1.06,3.75,0.62,5.57,0.28c1.76-0.33,0.92-2.14,0.89-3.24c-0.19-5.63,2.4-10.25,5.91-14.09
		C425.42,143.93,425.54,142.19,424.39,139.79z M265.58,146.19c1.02-0.77,1.94-1.27,3.32-0.42c1.31,0.81,2.6,0.1,2.69-1.41
		c0.09-1.51,0.74-3.22-0.61-4.58c-7.53-1.37-15.1-0.67-22.66-0.35c-0.14,0.01-0.27,0.4-0.4,0.61c0.18,4.19,2.01,6.34,6.48,5.26
		c0.35-0.08,0.75,0.06,1.13,0.1c0.03,3.9-0.05,7.8,0.14,11.69c0.11,2.17-0.95,4.5,0.7,6.51c2.52,0.02,5.04,0.04,7.56,0.05
		c1.7-2.42,0.52-5.15,0.82-7.72C265.13,152.7,263.92,149.33,265.58,146.19z M215.75,163.64c4.69,0.02,9.37,0.06,14.06,0.07
		c5.07,0.01,5.07,0,5.03-5.26c-2.49-2-5.38-0.44-8.04-0.9c-1.06-0.18-2.51,0.32-2.57-1.46c-0.06-1.78,1.37-1.39,2.46-1.57
		c2.18-0.36,4.58,0.98,6.55-0.86c0.19-5.29,0.19-5.29-4.92-5.29c-1.01,0-2.02-0.02-3.03-0.02c-1.04-0.01-1.17-0.68-1.17-1.51
		c0-0.84,0.12-1.51,1.17-1.52c1.39-0.01,2.78-0.02,4.17-0.02c5.45-0.01,5.45-0.01,5.36-5.27c-0.35-0.87-1.13-0.88-1.88-0.88
		c-5.02-0.02-10.04-0.03-15.06-0.03c-0.86,0-1.81-0.11-2.2,0.98c0.04,0.2,0.01,0.38-0.11,0.55c-1.42,6.85-0.31,13.78-0.63,20.67
		C214.9,162.15,214.75,163.12,215.75,163.64z M181.04,149.96c-0.85,4.58-1.26,9.16,0.24,13.71c4.67,0.01,9.34,0.03,14.02,0.04
		c5.07,0.01,5.07,0,5.03-5.23c-0.81-1.48-2.22-0.89-3.4-0.94c-2.65-0.11-5.31-0.11-7.97-0.15c-0.45-1.95-0.16-3.14,2.32-2.93
		c1.72,0.14,3.5-0.38,5.17-0.49c3.39-0.23,2.24-2.38,2.32-4c0.12-2.49-1.88-1.44-3.02-1.54c-1.77-0.16-3.56-0.07-5.33-0.04
		c-1.08,0.02-1.6-0.33-1.6-1.52c0-1.15,0.41-1.6,1.54-1.57c1.65,0.04,3.3,0.01,4.96,0c5.15-0.01,5.15-0.01,4.92-5.31
		c-3.8-1.86-7.84-0.62-11.76-0.77c-2.37-0.09-4.98-1.02-7.2,0.78C181.2,143.3,181.12,146.63,181.04,149.96z M312.32,163.59
		c1.5-1.76,0.78-3.87,0.72-5.78c-0.18-5.75,0.87-11.54-0.57-17.24c-0.11-0.15-0.15-0.31-0.12-0.49c-2.04-1.48-4.08-1.42-6.12-0.01
		c0.03,0.19-0.01,0.37-0.12,0.52c-1.47,3.77-0.28,7.69-0.68,11.52c-2.52-3.18-5.36-6.17-7.48-9.61c-2.25-3.64-4.9-3.03-7.96-1.79
		c-1.29,5.64-0.35,11.35-0.53,17.03c-0.06,1.94-0.76,4.06,0.68,5.86c0.76,0.03,1.54-0.03,2.28,0.11c3.22,0.59,4.12-0.74,3.91-3.89
		c-0.16-2.49-0.72-5.16,0.66-8.12c2.01,2.75,3.84,5.07,5.46,7.52C306.08,164.71,306.17,164.8,312.32,163.59z M431.88,175.96
		c-86.1,0.01-172.2,0.01-258.3,0.02c-5.19-12.34-10.37-24.69-15.56-37.03c-0.21,0.06-0.41,0.11-0.62,0.17c0,1.36,0,2.72,0,4.08
		c0,33.11-0.2,66.23,0.06,99.34c0.23,28.84-1.04,57.69,0.73,86.51c0.59,9.55,1.9,19.04,4.16,28.23c4.14,16.87,9.67,33.3,18.76,48.36
		c6.09,10.1,12,20.25,19.34,29.55c6.12,7.75,12.95,14.72,20.45,21.03c2.44,2.05,5.6,3.65,7.83,5.68
		c7.19,6.53,15.95,10.27,24.23,14.71c9.41,5.04,20.32,6.13,30.5,9.15c5.38,1.6,11.53,1.75,17.39,0.94c1.45,2.66,2.99,2.58,4.63,0.17
		c7.27-0.15,14.34-1.42,21.52-2.62c9.53-1.6,18.23-4.8,26.74-8.7c7.43-3.41,14.91-6.9,21.26-12.4c2.97-2.57,6.94-4.29,9.69-6.93
		c5.37-5.17,11.03-10.06,16.02-15.72c10.22-11.6,18.82-24.29,25.67-38.01c5.66-11.34,10.18-23.28,13.75-35.53
		c4.9-16.76,7.83-33.85,7.88-51.29c0.17-57.68,0.09-115.36,0.11-173.04c0-1.18,0-2.36,0-4.02c-3.4,3.92-4.29,8.34-5.87,12.29
		C438.89,159.29,435.07,167.49,431.88,175.96z M403.6,152.55c-0.01,0-0.01,0-0.02,0c0-1.41,0.13-2.83-0.02-4.22
		c-0.62-5.45-2.86-8.32-6.97-9.12c-4.39-0.85-9.02,0.88-10.38,4.4c-1.97,5.07-1.67,10.37-0.09,15.48c0.41,1.34,0.63,2.96,2.48,3.97
		c5.21,2.83,13.39,2.3,14.97-6.29C403.82,155.4,403.6,153.95,403.6,152.55z M349.4,165.2c2.56,0.88,4.64-1.01,6.72-2.11
		c3.1-1.64,4.28-8.6,1.85-10.72c-1.97-1.71-1.82-3.43-0.97-5.19c1.27-2.66,0.67-4.9-1.51-6.29c-2.79-1.78-6.07-2.41-9.36-1.33
		c-2.54,0.83-5.9,2.44-5.01,5.03c1,2.92,4.41,1.64,6.82,0.48c1.12-0.54,2.38-1.06,2.99,0.2c0.55,1.13-0.16,2.31-1.58,2.57
		c-2.91,0.52-1.57,3.17-2.04,4.69c-0.43,1.39,1.76,1.22,2.95,1.21c1.73-0.02,2.26,1.4,2.37,2.48c0.15,1.53-0.94,2.83-2.33,3.5
		c-1.25,0.6-2.03-0.15-2.7-1.31c-1.68-2.92-4.4-1.99-6.12-0.62c-1.81,1.44,0.18,3.21,1.25,4.35
		C344.42,163.91,346.32,165.67,349.4,165.2z M321.38,149.89c3.07,0.07,5.36-1.4,5.4-4.42c0.05-3.4-1.4-5.46-5.05-5.55
		c-2.2-0.05-5.45,2.73-5.47,4.7C316.23,147.15,318.82,149.82,321.38,149.89z M274.73,160.39c0.58-2.86-0.46-4.16-3.36-3.57
		c-1.53,0.31-4.04-1.14-4.02,2.16c0.02,3.95,1.61,5.67,5.42,5.44C275.59,164.26,274.46,161.89,274.73,160.39z M210.99,160.32
		c0.67-2.86-0.49-3.49-3.32-3.64c-3.46-0.19-3.45,1.62-3.85,4.06c-0.6,3.67,1.82,2.78,3.76,3
		C210.29,164.06,211.78,163.36,210.99,160.32z M237.59,164.3c2.96-1.94,6.64,1.91,7.84-2.48c0.36-1.32,1.82-4.3-1.36-4.92
		c-1.66-0.32-4.04-0.89-5.12,0.34C237.55,158.84,239.5,161.47,237.59,164.3z"/>
	<path class="st1" d="M153.71,127.22c-0.07,7.15-0.2,14.29-0.21,21.44c-0.02,52.34,0,104.68-0.02,157.03c0,1.5,0.38,3.07-0.41,4.51
		c-0.04-18.27-0.1-36.53-0.1-54.8c-0.02-41.51-0.01-83.03,0.04-124.54C153.01,129.66,152.23,128.17,153.71,127.22z"/>
	<path class="st1" d="M296.27,491.2c4.31-0.89,8.62-0.8,12.93-0.06C304.9,491.16,300.58,491.18,296.27,491.2z"/>
	<path class="st2" d="M305.49,486.87c-1.64,2.41-3.18,2.48-4.63-0.17c0.03-1.15-0.14-2.23-0.61-3.32
		c-3.67-8.59-7.29-17.2-10.92-25.81c-0.32-0.76-1.15-1.56,0.2-2.16c1.35,1,3.08,1.3,4.14,0.22c0.94-0.96-0.53-2.23-0.9-3.38
		c-1.7-5.3-3.33-10.62-5.07-15.9c-0.35-1.07-0.48-2.84-2.25-2.37c-1.55,0.41-3.99-1.66-4.6,1.52c-5.35-12.67-10.8-25.31-16.03-38.03
		c-7.51-18.27-14.82-36.63-22.31-54.91c-12.23-29.85-24.54-59.66-36.81-89.49c-7.47-18.15-15.09-36.25-22.35-54.49
		c-2.86-7.2-6.39-14.16-8.37-21.7c1.28-0.03,2.55-0.1,3.83-0.1c66.53-0.01,133.06-0.01,199.58,0c17.62,0,35.24,0.05,52.86,0.08
		c0.09,1.16-0.12,2.24-0.58,3.35c-11.35,27.43-22.69,54.86-33.98,82.31c-6.45,15.68-12.76,31.41-19.19,47.09
		c-7.78,18.97-15.61,37.92-23.43,56.88c-6.12,14.85-12.44,29.62-18.28,44.57c-2.96,7.58-6.83,14.81-8.95,22.72
		c-3.17,0.05-6.36-0.05-9.51,0.22c-1.17,0.1-3.34-1.37-3.47,1.39c-0.12,2.51,1.71,2.31,3.41,2.36c0.91,0.02,2.61-0.55,2.57,0.74
		c-0.16,4.86,1.2,9.82-0.74,14.58c-0.69,0.39-1.08,0.99-1.38,1.73c-3.33,8.32-6.74,16.62-10.02,24.96
		C306.82,482.06,304.99,484.11,305.49,486.87z M317.98,365.48c3.71-0.59,7.07-2.28,10.43-3.78c6.4-2.85,12.01-7.53,15.77-12.99
		c6.43-9.33,8.78-20.1,6.69-31.77c-1.98-11.04-7.62-18.86-17.2-24.5c-2.7-1.59-6.15-2.09-8.45-4.99
		c8.07-4.01,14.81-8.79,18.44-17.63c3.98-9.72,2.89-19.06-1.85-27.29c-5.16-8.95-13.43-15.35-23.86-18.13
		c-0.08-2.93,0.03-5.88-0.27-8.79c-0.34-3.31,0.51-4.47,4.18-4.42c16.74,0.23,33.49-0.03,50.23,0.21c3.58,0.05,4.12-1.07,4.02-4.23
		c-0.23-7.41-0.2-14.83-0.01-22.25c0.07-2.72-0.42-3.64-3.45-3.63c-46.4,0.12-92.79,0.11-139.19,0.01
		c-2.82-0.01-3.31,0.87-3.25,3.43c0.17,7.41,0.22,14.84-0.01,22.25c-0.11,3.3,0.54,4.47,4.21,4.42c16.74-0.23,33.49-0.12,50.23-0.06
		c1.05,0,3.1-0.93,3.06,1.01c-0.08,3.99,1.07,8.11-0.77,11.99c-2.35-0.62-4.06,0.85-5.93,1.81c-7.6,3.91-13.9,8.91-18.01,16.86
		c-2.96,5.71-3.46,11.43-3.62,17.51c-0.3,11.46,7.77,21.44,17.68,25.26c0.99,0.38,1.89,1.05,1.98,2c0.05,0.58-0.95,0.96-1.81,1.06
		c-1.9,0.2-3.38,1.58-4.99,2.4c-6.74,3.46-12.81,8.21-15.55,15.4c-4.84,12.7-5.36,25.45,1.76,37.86
		c6.47,11.27,16.14,17.91,28.48,21.09c1.23,1.25,0.88,2.82,0.88,4.31c0.01,17.78,0.05,35.56-0.04,53.34
		c-0.01,2.22,0.33,3.09,2.85,3.03c8.05-0.19,16.11-0.21,24.16,0.01c2.77,0.07,3-1.02,2.99-3.28c-0.09-13.69-0.07-27.37-0.03-41.06
		C317.74,376.46,317.89,370.97,317.98,365.48z M296.8,444.87c0.01,0,0.02,0,0.03,0c0,3.06,0.02,6.12-0.01,9.18
		c-0.02,1.35,0.31,2.15,1.92,2.11c3.69-0.09,7.39-0.11,11.08-0.03c1.69,0.04,1.75-0.89,1.8-2.17c0.06-1.46-0.7-1.67-1.89-1.65
		c-2.04,0.05-4.09-0.12-6.11,0.06c-2.28,0.2-2.78-0.77-2.72-2.85c0.13-4.46-0.02-8.92,0.06-13.38c0.03-1.56-0.29-2.28-2.06-2.28
		c-1.73-0.01-2.18,0.63-2.12,2.23C296.87,439.01,296.8,441.94,296.8,444.87z"/>
	<path class="st3" d="M174.98,176.87c1.98,7.54,5.5,14.51,8.37,21.7c7.26,18.24,14.88,36.34,22.35,54.49
		c12.28,29.83,24.58,59.64,36.81,89.49c7.49,18.28,14.79,36.64,22.31,54.91c5.23,12.72,10.68,25.36,16.03,38.03
		c-2.03,5.95-4.03,11.91-6.12,17.84c-0.32,0.9-1.41,1.83-0.25,2.56c0.9,0.56,2.31,0.6,3.24-0.13c0.91-0.72,2.18-1.79,2.18-2.72
		c0.02-2.63,1.67-2.08,3.25-2.34c3.86-0.64,5.45,1.51,6.38,4.7c-1.35,0.6-0.52,1.4-0.2,2.16c3.64,8.6,7.25,17.22,10.92,25.81
		c0.47,1.09,0.63,2.17,0.61,3.32c-5.86,0.81-12,0.66-17.39-0.94c-10.18-3.02-21.09-4.1-30.5-9.15c-8.28-4.44-17.03-8.18-24.23-14.71
		c-2.23-2.02-5.39-3.63-7.83-5.68c-7.5-6.32-14.34-13.28-20.45-21.03c-7.34-9.3-13.25-19.46-19.34-29.55
		c-9.09-15.06-14.63-31.5-18.76-48.36c-2.25-9.19-3.57-18.68-4.16-28.23c-1.78-28.83-0.51-57.68-0.73-86.51
		c-0.26-33.11-0.06-66.23-0.06-99.34c0-1.36,0-2.72,0-4.08c0.21-0.06,0.41-0.11,0.62-0.17c5.19,12.34,10.37,24.69,15.56,37.03
		C173.62,176.94,174.49,176.62,174.98,176.87z M263.45,456.13c1.49,0.76,3.35-0.34,4.98-0.96c2.31-0.88,3.81-3.22,3.92-5.71
		c0.11-2.33-1.12-4.01-3.69-4.98c-2.17-0.82-4.16-2.01-6.56-2.34c-0.95-0.13-2.07-0.69-2-2.28c0.07-1.64,1.39-1.84,2.28-2.05
		c1.83-0.42,3.55,0.26,4.55,1.94c0.99,1.68,2.66,1.37,3.54,0.67c1-0.79,0.55-2.27-0.48-3.29c-2.23-2.19-4.67-3.83-8-3.23
		c-2.9,0.51-5.97,0.86-6.38,4.72c-0.48,4.54,0.7,6.71,4.82,7.39c2.02,0.34,3.57,1.63,5.66,1.83c1.2,0.11,2.83,1.53,0.57,3.34
		c-2.32,1.86-5.97,1.77-7.91-1.21c-1.47-2.25-3.21-0.79-4.18-0.43c-1.32,0.48,0.06,1.74,0.52,2.73
		C256.69,455.77,259.68,456.17,263.45,456.13z"/>
	<path class="st3" d="M305.49,486.87c-0.5-2.76,1.33-4.81,2.24-7.12c3.28-8.34,6.69-16.64,10.02-24.96c0.3-0.74,0.69-1.34,1.38-1.73
		c1.17,2.69,2.7,4.45,5.76,2.21c1.06-5.72,0.24-11.49,0.5-17.23c1.25-0.11,2.5-0.31,3.75-0.29c1.47,0.02,1.6-0.8,1.59-1.94
		c-0.01-1.14-0.1-2.03-1.6-1.92c-0.75,0.05-1.52-0.07-2.28-0.11c2.12-7.91,5.99-15.14,8.95-22.72
		c5.84-14.96,12.16-29.73,18.28-44.57c7.81-18.96,15.65-37.91,23.43-56.88c6.43-15.68,12.74-31.41,19.19-47.09
		c11.29-27.45,22.63-54.88,33.98-82.31c0.46-1.1,0.66-2.18,0.58-3.35c0.21-0.3,0.41-0.6,0.62-0.9c3.19-8.46,7.01-16.67,10.37-25.07
		c1.58-3.95,2.47-8.36,5.87-12.29c0,1.66,0,2.84,0,4.02c-0.02,57.68,0.06,115.36-0.11,173.04c-0.05,17.44-2.99,34.53-7.88,51.29
		c-3.58,12.24-8.09,24.19-13.75,35.53c-6.84,13.72-15.45,26.41-25.67,38.01c-4.98,5.66-10.64,10.55-16.02,15.72
		c-2.74,2.64-6.72,4.36-9.69,6.93c-6.35,5.51-13.83,8.99-21.26,12.4c-8.51,3.9-17.2,7.1-26.74,8.7
		C319.83,485.45,312.76,486.72,305.49,486.87z M349.13,456.14c1.35-0.05,3.14,0.03,2.59-1.39c-2.43-6.21-4.36-12.59-6.65-18.84
		c-0.68-1.85-3.06-1.82-4.94-2.03c-2.23-0.24-1.42,1.47-1.79,2.51c-1.89,5.35-3.85,10.68-5.74,16.03c-0.34,0.96-1.65,1.74-0.61,3.03
		c0.69,0.84,1.61,0.81,2.45,0.62c1.31-0.31,2.32-1.19,2.4-2.58c0.08-1.6-0.08-3.38,2.29-2.67c2.34,0.7,5.72-2.11,7.06,2.22
		C346.62,454.41,346.63,456.93,349.13,456.14z"/>
	<path class="st2" d="M312.34,140.07c-0.03,0.18,0.01,0.34,0.12,0.49c-0.05,7.67-0.1,15.35-0.14,23.02
		c-6.15,1.21-6.23,1.13-9.87-4.36c-1.62-2.45-3.45-4.77-5.46-7.52c-1.38,2.96-0.82,5.63-0.66,8.12c0.21,3.15-0.69,4.49-3.91,3.89
		c-0.74-0.14-1.52-0.08-2.28-0.11c-0.05-7.63-0.1-15.26-0.15-22.89c3.06-1.24,5.72-1.85,7.96,1.79c2.12,3.43,4.96,6.42,7.48,9.61
		c1.67-3.76,0.46-7.68,0.68-11.52c0.11-0.16,0.15-0.33,0.12-0.52C308.26,140.07,310.3,140.07,312.34,140.07z"/>
	<path class="st2" d="M200.23,139.97c0.23,5.31,0.23,5.31-4.92,5.31c-1.65,0-3.31,0.04-4.96,0c-1.13-0.03-1.54,0.43-1.54,1.57
		c0,1.19,0.52,1.54,1.6,1.52c1.78-0.03,3.57-0.12,5.33,0.04c1.14,0.1,3.15-0.95,3.02,1.54c-0.08,1.62,1.07,3.77-2.32,4
		c-1.67,0.11-3.45,0.63-5.17,0.49c-2.49-0.21-2.77,0.99-2.32,2.94c0.28,1.56,1.53,0.9,2.35,0.93c3,0.12,6.01,0.12,9.02,0.16
		c0.04,5.23,0.04,5.24-5.03,5.23c-4.67-0.01-9.34-0.02-14.02-0.04c-0.08-4.57-0.16-9.14-0.24-13.71c0.08-3.33,0.15-6.66,0.23-9.99
		C187.59,139.97,193.91,139.97,200.23,139.97z"/>
	<path class="st2" d="M234.82,140.01c0.08,5.26,0.08,5.26-5.36,5.27c-1.39,0-2.78,0.02-4.17,0.02c-1.04,0.01-1.16,0.68-1.17,1.52
		c0,0.84,0.13,1.51,1.17,1.51c1.01,0.01,2.02,0.02,3.03,0.02c5.11,0,5.11,0,4.92,5.29c-2.54,0.02-5.08,0.17-7.61,0.04
		c-1.87-0.1-2.31,0.59-2.33,2.38c-0.02,1.9,0.64,2.37,2.41,2.31c3.04-0.1,6.09,0.03,9.13,0.06c0.04,5.26,0.04,5.27-5.03,5.26
		c-4.69-0.01-9.37-0.04-14.06-0.06c-0.06-7.67-0.12-15.34-0.18-23c0.11-0.17,0.15-0.35,0.11-0.55
		C222.06,140.06,228.44,140.04,234.82,140.01z"/>
	<path class="st2" d="M403.6,152.55c0,1.41,0.21,2.85-0.03,4.21c-1.58,8.6-9.76,9.12-14.97,6.29c-1.84-1-2.06-2.63-2.48-3.97
		c-1.58-5.11-1.88-10.41,0.09-15.48c1.37-3.52,6-5.25,10.38-4.4c4.11,0.8,6.35,3.67,6.97,9.12c0.16,1.39,0.02,2.81,0.02,4.22
		C403.59,152.55,403.6,152.55,403.6,152.55z M397.57,151.94c-0.3-1.48-0.6-2.81-0.82-4.15c-0.25-1.46-0.14-3.15-2.27-3.25
		c-2.24-0.11-2.86,1.72-3.01,3.23c-0.29,2.91-0.26,5.88-0.01,8.8c0.12,1.37,0.64,3.31,2.53,3.23c1.84-0.07,2.73-1.42,2.81-3.39
		C396.86,154.87,397.31,153.35,397.57,151.94z"/>
	<path class="st2" d="M349.4,165.2c-3.08,0.47-4.98-1.28-6.67-3.08c-1.07-1.14-3.06-2.91-1.25-4.35c1.72-1.37,4.43-2.3,6.12,0.62
		c0.67,1.16,1.44,1.91,2.7,1.31c1.39-0.67,2.48-1.97,2.33-3.5c-0.1-1.08-0.64-2.5-2.37-2.48c-1.19,0.01-3.39,0.18-2.95-1.21
		c0.47-1.51-0.87-4.16,2.04-4.69c1.41-0.25,2.12-1.44,1.58-2.57c-0.61-1.26-1.88-0.73-2.99-0.2c-2.41,1.15-5.81,2.43-6.82-0.48
		c-0.89-2.59,2.47-4.2,5.01-5.03c3.29-1.07,6.57-0.44,9.36,1.33c2.19,1.39,2.79,3.64,1.51,6.29c-0.84,1.76-0.99,3.48,0.97,5.19
		c2.43,2.12,1.25,9.08-1.85,10.72C354.04,164.19,351.96,166.08,349.4,165.2z"/>
	<path class="st2" d="M263.93,163.66c-2.52-0.02-5.04-0.04-7.56-0.05c-0.01-4.71,0.06-9.42-0.08-14.12
		c-0.04-1.35,0.86-2.99-0.76-4.08c-0.38-0.04-0.78-0.18-1.13-0.1c-4.47,1.08-6.3-1.07-6.48-5.26c7.69-0.08,15.37-0.17,23.06-0.25
		c1.35,1.36,0.7,3.07,0.61,4.58c-0.09,1.51-1.38,2.22-2.69,1.41c-1.38-0.86-2.3-0.35-3.32,0.42c-1.92-1.34-1.54,0.23-1.55,1.24
		C263.99,152.84,263.96,158.25,263.93,163.66z"/>
	<path class="st2" d="M424.39,139.79c1.15,2.41,1.03,4.14-1.08,6.45c-3.51,3.84-6.1,8.46-5.91,14.09c0.04,1.09,0.88,2.91-0.89,3.24
		c-1.81,0.34-3.96,0.78-5.57-0.28c-0.97-0.64-0.6-2.44-0.25-3.59c1.19-3.9,2.15-7.9,4.77-11.23c1.38-1.75,1.53-3.3-1.49-3.18
		c-0.64,0.03-1.28,0-1.91,0c-5.45,0-5.45,0-5.27-5.29C412.66,139.93,418.52,139.86,424.39,139.79z"/>
	<path class="st2" d="M366.88,150.79c-0.73-0.45-2.24,1.69-2.21-0.31c0.02-1.92-1.93-4.95,1.26-5.71c2.8-0.66,4.16-2.32,5.65-4.37
		c1.76-2.43,4.43-0.86,6.68-1.17c0.01,8.12,0.01,16.25,0.02,24.38c-2.25,0.02-4.5,0.04-6.75,0.06c0-4.72,0-9.44,0-14.42
		C369.71,150.06,368.03,149.55,366.88,150.79z"/>
	<path class="st1" d="M431.88,175.96c-0.21,0.3-0.41,0.6-0.62,0.9c-17.62-0.03-35.24-0.08-52.86-0.08c-66.53-0.01-133.06,0-199.58,0
		c-1.28,0-2.55,0.07-3.83,0.1c-0.5-0.26-1.37,0.07-1.4-0.9C259.68,175.97,345.78,175.96,431.88,175.96z"/>
	<path class="st2" d="M321.38,149.89c-2.56-0.07-5.15-2.74-5.12-5.27c0.02-1.97,3.27-4.76,5.47-4.7c3.65,0.09,5.1,2.15,5.05,5.55
		C326.74,148.49,324.45,149.96,321.38,149.89z M324.47,144.83c-0.71-0.93-1.46-2.21-2.92-1.78c-0.91,0.27-2.45,0.35-2.26,1.96
		c0.16,1.38,1.06,2.54,2.39,2.46C323,147.38,324.1,146.36,324.47,144.83z"/>
	<path class="st2" d="M274.73,160.39c-0.27,1.49,0.86,3.86-1.97,4.03c-3.81,0.23-5.4-1.49-5.42-5.44c-0.02-3.29,2.49-1.84,4.02-2.16
		C274.28,156.23,275.31,157.54,274.73,160.39z"/>
	<path class="st2" d="M210.99,160.32c0.79,3.05-0.7,3.74-3.41,3.42c-1.94-0.23-4.36,0.66-3.76-3c0.4-2.44,0.39-4.25,3.85-4.06
		C210.5,156.83,211.66,157.46,210.99,160.32z"/>
	<path class="st2" d="M237.59,164.3c1.9-2.82-0.04-5.46,1.36-7.06c1.08-1.23,3.46-0.66,5.12-0.34c3.18,0.62,1.72,3.6,1.36,4.92
		C244.24,166.2,240.55,162.36,237.59,164.3z"/>
	<path class="st1" d="M234.83,158.44c-3.04-0.03-6.09-0.16-9.13-0.06c-1.77,0.06-2.43-0.41-2.41-2.31c0.02-1.79,0.46-2.48,2.33-2.38
		c2.53,0.13,5.07-0.01,7.61-0.04c-1.98,1.84-4.38,0.5-6.55,0.86c-1.09,0.18-2.52-0.21-2.46,1.57c0.06,1.77,1.51,1.27,2.57,1.46
		C229.46,158,232.35,156.44,234.83,158.44z"/>
	<path class="st1" d="M378.29,163.61c-0.01-8.13-0.01-16.25-0.02-24.38c1.31,0.92,0.77,2.31,0.79,3.49
		c0.07,6.05,0.05,12.11,0.03,18.16C379.08,161.84,379.38,162.95,378.29,163.61z"/>
	<path class="st1" d="M312.32,163.59c0.05-7.67,0.1-15.35,0.14-23.02c1.45,5.7,0.39,11.49,0.57,17.24
		C313.09,159.71,313.82,161.83,312.32,163.59z"/>
	<path class="st1" d="M289.98,140.72c0.05,7.63,0.1,15.26,0.15,22.89c-1.44-1.81-0.75-3.93-0.68-5.87
		C289.63,152.07,288.69,146.36,289.98,140.72z"/>
	<path class="st1" d="M215.58,140.63c0.06,7.67,0.12,15.34,0.18,23c-1-0.52-0.85-1.48-0.81-2.33
		C215.27,154.42,214.16,147.49,215.58,140.63z"/>
	<path class="st1" d="M270.98,139.79c-7.69,0.08-15.37,0.17-23.06,0.25c0.13-0.21,0.26-0.6,0.4-0.61
		C255.89,139.13,263.45,138.42,270.98,139.79z"/>
	<path class="st1" d="M366.88,150.79c1.15-1.24,2.82-0.73,4.66-1.54c0,4.98,0,9.7,0,14.42c-1.65-2.41-0.9-5.16-0.72-7.66
		C371.06,152.79,370.01,151.17,366.88,150.79z"/>
	<path class="st1" d="M263.93,163.66c0.03-5.41,0.06-10.82,0.1-16.22c0.01-1.02-0.37-2.58,1.55-1.24c-1.66,3.13-0.45,6.51-0.83,9.75
		C264.45,158.51,265.64,161.24,263.93,163.66z"/>
	<path class="st1" d="M234.82,140.01c-6.38,0.02-12.76,0.05-19.14,0.07c0.39-1.09,1.34-0.98,2.2-0.98
		c5.02-0.01,10.04,0.01,15.06,0.03C233.69,139.13,234.46,139.14,234.82,140.01z"/>
	<path class="st1" d="M200.23,139.97c-6.32,0-12.64,0.01-18.96,0.01c2.22-1.8,4.83-0.87,7.2-0.78
		C192.39,139.34,196.43,138.11,200.23,139.97z"/>
	<path class="st1" d="M255.54,145.41c1.62,1.09,0.71,2.73,0.76,4.08c0.14,4.7,0.07,9.42,0.08,14.12c-1.65-2.01-0.6-4.34-0.7-6.51
		C255.48,153.21,255.57,149.31,255.54,145.41z"/>
	<path class="st1" d="M424.39,139.79c-5.87,0.07-11.74,0.14-17.6,0.21c1.81-1.77,4.08-0.9,6.08-0.83
		C416.7,139.31,420.62,138.31,424.39,139.79z"/>
	<path class="st1" d="M181.04,149.96c0.08,4.57,0.16,9.14,0.24,13.71C179.78,159.12,180.19,154.55,181.04,149.96z"/>
	<path class="st1" d="M306.1,140.59c-0.22,3.84,0.99,7.77-0.68,11.52C305.83,148.28,304.63,144.36,306.1,140.59z"/>
	<path class="st1" d="M200.32,158.47c-3.01-0.04-6.02-0.03-9.02-0.16c-0.82-0.03-2.07,0.63-2.35-0.93c2.66,0.04,5.31,0.04,7.97,0.15
		C198.1,157.58,199.52,157,200.32,158.47z"/>
	<path class="st1" d="M312.34,140.07c-2.04,0-4.08,0-6.12-0.01C308.26,138.65,310.3,138.6,312.34,140.07z"/>
	<path class="st4" d="M317.94,224.4c10.43,2.78,18.7,9.19,23.86,18.13c4.74,8.23,5.84,17.57,1.85,27.29
		c-3.62,8.85-10.37,13.63-18.44,17.63c2.3,2.9,5.75,3.4,8.45,4.99c9.58,5.64,15.22,13.46,17.2,24.5
		c2.09,11.67-0.26,22.44-6.69,31.77c-3.76,5.46-9.38,10.13-15.77,12.99c-3.35,1.5-6.71,3.19-10.43,3.78
		c0.01-5.57,0.01-11.14,0.02-16.72c4.31-1.25,7.01-4.45,9.42-7.93c6.42-9.25,7.4-18.62,2.42-28.94c-2.55-5.27-6.53-9.09-11.34-12.19
		c-0.52-0.25-1.03-0.51-1.55-0.76c-1.46-0.56-2.92-1.13-4.38-1.69c-0.18-0.44-0.41-0.81-0.99-0.65c-5.65-1.79-11.29-1.29-16.93,0.06
		c-2.41-0.29-4.54,0.22-6.19,2.14c-0.47,0.3-0.95,0.6-1.42,0.89c-3.76,0.26-5.9,3.08-8.04,5.53c-5.96,6.84-7.78,15.13-6.38,23.83
		c1.4,8.74,5.6,15.96,14.31,19.62c1.24,5.64,1.34,11.28,0,16.92c-12.34-3.18-22.01-9.82-28.48-21.09
		c-7.12-12.41-6.6-25.15-1.76-37.86c2.74-7.19,8.8-11.94,15.55-15.4c1.61-0.83,3.09-2.2,4.99-2.4c0.86-0.09,1.86-0.48,1.81-1.06
		c-0.09-0.95-0.99-1.62-1.98-2c-9.91-3.82-17.99-13.8-17.68-25.26c0.16-6.08,0.66-11.8,3.62-17.51
		c4.11-7.95,10.41-12.95,18.01-16.86c1.86-0.96,3.58-2.43,5.93-1.81c1.56,5.52,0.75,11.1,0.48,16.68
		c-9.12,6.06-10.23,15.08-8.27,24.06c1.04,4.76,3.2,9.17,8.55,10.78c-0.04,0.63-0.76,1.66,0.79,1.36c1.48,1.57,3.42,2.03,5.45,2.28
		c0.25,0,0.51,0,0.76,0c1.92,1.08,4.06,0.94,6.16,1.16c3.69,0.38,7.14-1.1,10.75-1.16c0.5,0.12,0.74-0.18,0.9-0.58
		c1.92,0.46,2.81-1.7,4.51-1.79c0.78-0.15,0.61-0.88,0.84-1.36c6.09-3.77,8.66-9.66,8.88-16.4c0.23-7.18-3.43-12.81-8.75-17.41
		C317.97,236.1,317.96,230.25,317.94,224.4z"/>
	<path class="st5" d="M317.94,224.4c0.01,5.85,0.03,11.7,0.04,17.55c-0.52,11.27-0.27,22.54-0.13,33.81
		c-0.23,0.49-0.06,1.22-0.84,1.36c-0.02-21.22,0.02-42.43-0.13-63.65c-0.02-2.8,1.08-2.98,3.31-2.97c17.37,0.07,34.75,0,52.12,0.09
		c2.25,0.01,3.08-0.37,3.01-2.87c-0.19-7.54-0.15-15.08-0.02-22.62c0.04-2.22-0.34-3.03-2.85-3.03
		c-46.25,0.09-92.5,0.08-138.74,0.01c-2.16,0-2.78,0.56-2.74,2.73c0.13,7.41,0.19,14.83-0.02,22.24c-0.08,2.83,0.59,3.59,3.51,3.56
		c16.99-0.16,33.98-0.06,50.97-0.1c1.94,0,3.23-0.1,3.21,2.67c-0.16,21.34-0.13,42.69-0.16,64.03c-1.55,0.3-0.83-0.73-0.79-1.36
		c0.04-4.93,0.19-9.87,0.1-14.8c-0.13-6.68,0.52-13.38-0.38-20.04c0.27-5.57,1.08-11.16-0.48-16.68c1.84-3.88,0.69-8,0.77-11.99
		c0.04-1.94-2.01-1.01-3.06-1.01c-16.74-0.07-33.49-0.18-50.23,0.06c-3.67,0.05-4.32-1.12-4.21-4.42
		c0.24-7.41,0.19-14.83,0.01-22.25c-0.06-2.56,0.43-3.44,3.25-3.43c46.4,0.1,92.79,0.11,139.19-0.01c3.03-0.01,3.52,0.92,3.45,3.63
		c-0.19,7.41-0.22,14.84,0.01,22.25c0.1,3.16-0.44,4.28-4.02,4.23c-16.74-0.24-33.49,0.03-50.23-0.21
		c-3.67-0.05-4.53,1.12-4.18,4.42C317.97,218.52,317.87,221.47,317.94,224.4z"/>
	<path class="st5" d="M316.94,298.95c0.52,0.25,1.03,0.51,1.55,0.76c-1.51,2.2-0.73,4.69-0.73,7.02c0,14.01,0.14,28.03,0.24,42.04
		c-0.01,5.57-0.01,11.14-0.02,16.72c-0.09,5.49-0.23,10.97-0.25,16.46c-0.04,13.69-0.05,27.37,0.03,41.06
		c0.01,2.26-0.22,3.36-2.99,3.28c-8.05-0.22-16.11-0.2-24.16-0.01c-2.52,0.06-2.87-0.81-2.85-3.03c0.09-17.78,0.05-35.56,0.04-53.34
		c0-1.49,0.35-3.07-0.88-4.31c1.33-5.64,1.24-11.28,0-16.92c0.95-1.01,0.9-2.25,0.9-3.52c-0.02-14.09-0.02-28.19,0-42.28
		c0-1.14,0.08-2.27-0.78-3.18c0.47-0.3,0.95-0.6,1.42-0.89c0.04,1.4,0.11,2.81,0.11,4.21c0,39.63,0.03,79.27-0.06,118.9
		c-0.01,2.73,0.44,3.72,3.45,3.61c7.15-0.27,14.31-0.21,21.46-0.02c2.71,0.07,3.63-0.42,3.62-3.44
		C316.91,381.03,316.94,339.99,316.94,298.95z"/>
	<path class="st4" d="M289.53,455.41c-0.93-3.19-2.52-5.34-6.38-4.7c-1.58,0.26-3.23-0.29-3.25,2.34c-0.01,0.92-1.27,2-2.18,2.72
		c-0.93,0.73-2.34,0.69-3.24,0.13c-1.17-0.73-0.07-1.66,0.25-2.56c2.1-5.93,4.09-11.89,6.12-17.84c0.61-3.18,3.05-1.12,4.6-1.52
		c1.78-0.47,1.9,1.3,2.25,2.37c1.74,5.28,3.37,10.61,5.07,15.9c0.37,1.15,1.84,2.42,0.9,3.38
		C292.61,456.71,290.88,456.41,289.53,455.41z M284.69,446.06c0.74,0.31,1.78,1.14,1.5-0.66c-0.33-2.15-0.78-4.27-1.88-6.27
		c-0.4,1.35-1.41,2.45-1.15,3.93C281.82,445.52,282.07,446.01,284.69,446.06z"/>
	<path class="st4" d="M324.89,455.27c-3.06,2.24-4.59,0.48-5.76-2.21c1.94-4.76,0.58-9.72,0.74-14.58c0.04-1.29-1.66-0.72-2.57-0.74
		c-1.71-0.05-3.53,0.15-3.41-2.36c0.13-2.76,2.3-1.29,3.47-1.39c3.15-0.27,6.34-0.17,9.51-0.22c0.76,0.04,1.53,0.17,2.28,0.11
		c1.49-0.11,1.59,0.78,1.6,1.92c0.01,1.15-0.12,1.97-1.59,1.94c-1.25-0.02-2.5,0.19-3.75,0.29
		C324.18,443.75,325.01,449.52,324.89,455.27z"/>
	<path class="st4" d="M296.8,444.87c0-2.93,0.07-5.86-0.03-8.79c-0.05-1.6,0.39-2.23,2.12-2.23c1.77,0.01,2.09,0.72,2.06,2.28
		c-0.08,4.46,0.07,8.92-0.06,13.38c-0.06,2.08,0.44,3.06,2.72,2.85c2.02-0.18,4.07-0.01,6.11-0.06c1.18-0.03,1.94,0.18,1.89,1.65
		c-0.05,1.27-0.1,2.2-1.8,2.17c-3.69-0.08-7.39-0.06-11.08,0.03c-1.6,0.04-1.93-0.76-1.92-2.11c0.04-3.06,0.01-6.12,0.01-9.18
		C296.82,444.87,296.81,444.87,296.8,444.87z"/>
	<path class="st4" d="M263.45,456.13c-3.77,0.04-6.75-0.35-8.38-3.84c-0.46-0.99-1.84-2.25-0.52-2.73c0.97-0.36,2.72-1.82,4.18,0.43
		c1.94,2.97,5.59,3.06,7.91,1.21c2.26-1.81,0.63-3.23-0.57-3.34c-2.09-0.19-3.65-1.49-5.66-1.83c-4.12-0.69-5.3-2.85-4.82-7.39
		c0.41-3.86,3.48-4.21,6.38-4.72c3.33-0.59,5.77,1.05,8,3.23c1.03,1.01,1.48,2.49,0.48,3.29c-0.88,0.7-2.54,1.02-3.54-0.67
		c-1-1.68-2.72-2.35-4.55-1.94c-0.89,0.2-2.21,0.4-2.28,2.05c-0.07,1.59,1.04,2.15,2,2.28c2.4,0.33,4.39,1.52,6.56,2.34
		c2.57,0.96,3.79,2.65,3.69,4.98c-0.11,2.49-1.61,4.83-3.92,5.71C266.79,455.79,264.94,456.89,263.45,456.13z"/>
	<path class="st4" d="M349.13,456.14c-2.5,0.79-2.51-1.73-2.94-3.12c-1.34-4.32-4.72-1.52-7.06-2.22c-2.38-0.71-2.21,1.07-2.29,2.67
		c-0.07,1.4-1.08,2.28-2.4,2.58c-0.84,0.19-1.76,0.22-2.45-0.62c-1.05-1.28,0.27-2.06,0.61-3.03c1.89-5.35,3.85-10.68,5.74-16.03
		c0.36-1.04-0.44-2.75,1.79-2.51c1.88,0.21,4.26,0.18,4.94,2.03c2.3,6.25,4.23,12.63,6.65,18.84
		C352.28,456.16,350.49,456.09,349.13,456.14z M341.52,446.98c1.14-0.13,3.13,0.17,2.5-1.51c-0.58-1.55-0.29-4.49-2.52-4.45
		c-2.45,0.04-1.47,3.01-2.13,4.58C338.61,447.39,340.63,446.72,341.52,446.98z"/>
	<path class="st2" d="M324.89,455.27c0.12-5.74-0.71-11.52,0.5-17.23C325.13,443.78,325.95,449.55,324.89,455.27z"/>
	<path class="st0" d="M397.57,151.94c-0.26,1.41-0.71,2.94-0.77,4.47c-0.08,1.96-0.97,3.32-2.81,3.39
		c-1.89,0.07-2.41-1.86-2.53-3.23c-0.26-2.92-0.28-5.89,0.01-8.8c0.15-1.51,0.77-3.34,3.01-3.23c2.14,0.1,2.03,1.79,2.27,3.25
		C396.97,149.13,397.27,150.46,397.57,151.94z"/>
	<path class="st0" d="M324.47,144.83c-0.37,1.53-1.46,2.55-2.79,2.63c-1.34,0.08-2.24-1.08-2.39-2.46
		c-0.18-1.61,1.36-1.69,2.26-1.96C323.01,142.61,323.76,143.9,324.47,144.83z"/>
	<path class="st0" d="M311.6,279.48c-3.62,0.07-7.06,1.54-10.75,1.17c-2.1-0.21-4.23-0.08-6.15-1.16c0-22.81,0.02-45.62-0.01-68.43
		c0-1.48,0.5-3.08-0.63-4.41c-0.38-2.52-2.36-1.42-3.61-1.43c-17.96-0.12-35.93-0.14-53.89-0.18c-0.05-4.47,0.05-8.95-0.2-13.41
		c-0.16-2.82,0.96-3.35,3.53-3.34c43.29,0.08,86.58,0.08,129.86,0.09c0.05,4.28-0.09,8.57,0.21,12.83c0.21,3.07-0.52,4.08-3.86,4.05
		c-17.88-0.17-35.77-0.05-53.65-0.03c-1.53,1.01-0.81,2.56-0.82,3.85C311.58,232.54,311.6,256.01,311.6,279.48z"/>
	<path class="st2" d="M236.55,205.04c17.96,0.04,35.93,0.07,53.89,0.18c1.25,0.01,3.23-1.09,3.61,1.43
		c-0.04,24.28-0.08,48.56-0.13,72.85c-2.03-0.24-3.97-0.71-5.45-2.28c0.03-21.34,0-42.69,0.16-64.03c0.02-2.77-1.26-2.68-3.21-2.67
		c-16.99,0.04-33.98-0.06-50.97,0.1c-2.92,0.03-3.59-0.73-3.51-3.56c0.22-7.41,0.16-14.83,0.02-22.24
		c-0.04-2.18,0.59-2.74,2.74-2.73c46.25,0.06,92.5,0.07,138.74-0.01c2.52,0,2.89,0.81,2.85,3.03c-0.13,7.54-0.17,15.08,0.02,22.62
		c0.06,2.5-0.77,2.88-3.01,2.87c-17.37-0.09-34.75-0.02-52.12-0.09c-2.23-0.01-3.33,0.17-3.31,2.97
		c0.16,21.22,0.11,42.43,0.13,63.65c-1.71,0.08-2.59,2.24-4.51,1.79c-0.02-24.56-0.04-49.12-0.06-73.68
		c17.88-0.02,35.77-0.14,53.65,0.03c3.34,0.03,4.08-0.98,3.86-4.05c-0.3-4.26-0.16-8.55-0.21-12.83c-0.88-1.76-2.48-0.82-3.68-0.82
		c-42.22-0.07-84.43-0.03-126.65-0.12c-2.85-0.01-4.12,0.48-3.86,3.68c0.31,3.8,0.03,7.65,0.11,11.48
		C235.68,203.43,235.03,204.68,236.55,205.04z"/>
	<path class="st0" d="M294.64,296.67c5.64-1.35,11.28-1.85,16.93-0.06c0.01,4.47,0.02,8.94,0.02,13.4
		c-0.02,36.64-0.05,73.29-0.07,109.93c-3.69,0.04-7.38,0.25-11.05,0.07c-2.12-0.11-4.44,1.04-6.39-0.71
		c1.08-1.21,0.61-2.69,0.61-4.04c0.04-15.97,0.06-31.94,0.04-47.91c-0.03-23.38-0.09-46.76-0.14-70.14
		C294.59,297.03,294.62,296.85,294.64,296.67z"/>
	<path class="st2" d="M294.06,419.3c1.95,1.75,4.27,0.6,6.39,0.71c3.67,0.18,7.37-0.02,11.05-0.07c1.67-1.06,0.79-2.73,0.79-4.06
		c0.06-38.14,0.05-76.29,0.06-114.43c0-1.4,0.13-2.79,0.19-4.19c1.46,0.56,2.92,1.13,4.38,1.69c0.01,41.04-0.03,82.08,0.1,123.12
		c0.01,3.03-0.91,3.52-3.62,3.44c-7.15-0.19-14.32-0.24-21.46,0.02c-3.02,0.11-3.46-0.88-3.45-3.61
		c0.09-39.63,0.07-79.27,0.06-118.9c0-1.4-0.07-2.81-0.11-4.21c1.64-1.92,3.78-2.43,6.19-2.14c-0.02,0.18-0.04,0.36-0.06,0.54
		c-1.26,1-0.6,2.38-0.6,3.55c-0.05,16.24-0.05,32.48-0.03,48.72C293.96,372.76,294.02,396.03,294.06,419.3z"/>
	<path class="st2" d="M287.03,299.71c0.86,0.91,0.78,2.04,0.78,3.18c-0.01,14.09-0.02,28.19,0,42.28c0,1.27,0.04,2.51-0.9,3.52
		c-8.71-3.66-12.9-10.87-14.31-19.62c-1.4-8.7,0.42-16.99,6.38-23.83C281.12,302.79,283.27,299.96,287.03,299.71z"/>
	<path class="st2" d="M318,348.77c-0.09-14.01-0.23-28.03-0.24-42.04c0-2.33-0.78-4.82,0.73-7.02c4.82,3.1,8.79,6.92,11.34,12.19
		c4.99,10.31,4.01,19.69-2.42,28.94C325,344.31,322.31,347.52,318,348.77z"/>
	<path class="st2" d="M287.4,241.02c0.9,6.66,0.25,13.36,0.38,20.04c0.09,4.93-0.06,9.86-0.1,14.8c-5.34-1.61-7.51-6.02-8.55-10.78
		C277.17,256.1,278.28,247.08,287.4,241.02z"/>
	<path class="st2" d="M317.85,275.75c-0.14-11.27-0.39-22.54,0.13-33.81c5.32,4.6,8.99,10.23,8.76,17.4
		C326.52,266.09,323.95,271.98,317.85,275.75z"/>
	<path class="st1" d="M312.55,297.26c-0.07,1.4-0.19,2.79-0.19,4.19c-0.01,38.14,0,76.29-0.06,114.43c0,1.33,0.88,2.99-0.79,4.06
		c0.02-36.64,0.05-73.29,0.07-109.93c0-4.47-0.01-8.94-0.02-13.4C312.14,296.45,312.37,296.82,312.55,297.26z"/>
	<path class="st1" d="M312.44,205.23c0.02,24.56,0.04,49.12,0.06,73.68c-0.17,0.4-0.4,0.7-0.9,0.58c0-23.47-0.02-46.94,0.03-70.41
		C311.63,207.79,310.91,206.23,312.44,205.23z"/>
	<path class="st1" d="M293.92,279.49c0.04-24.28,0.08-48.56,0.13-72.85c1.13,1.34,0.63,2.94,0.63,4.41
		c0.03,22.81,0.02,45.62,0.01,68.43C294.43,279.49,294.18,279.49,293.92,279.49z"/>
	<path class="st2" d="M283.17,443.06c-0.27-1.48,0.74-2.58,1.15-3.93c1.09,1.99,1.55,4.12,1.88,6.27c0.28,1.8-0.76,0.97-1.5,0.66
		C284.56,444.87,284.17,443.81,283.17,443.06z"/>
	<path class="st3" d="M283.17,443.06c1,0.75,1.39,1.81,1.52,3C282.07,446.01,281.82,445.52,283.17,443.06z"/>
	<path class="st3" d="M341.52,446.98c-0.89-0.25-2.92,0.41-2.16-1.38c0.66-1.57-0.32-4.54,2.13-4.58c2.24-0.04,1.94,2.9,2.52,4.45
		C344.65,447.15,342.66,446.84,341.52,446.98z"/>
	<path class="st1" d="M236.55,205.04c-1.53-0.35-0.87-1.6-0.89-2.44c-0.08-3.83,0.19-7.67-0.11-11.48c-0.26-3.2,1.01-3.68,3.86-3.68
		c42.22,0.09,84.43,0.05,126.65,0.12c1.2,0,2.8-0.95,3.68,0.82c-43.29-0.01-86.58,0-129.86-0.09c-2.57,0-3.69,0.53-3.53,3.34
		C236.6,196.09,236.5,200.57,236.55,205.04z"/>
	<path class="st1" d="M294.06,419.3c-0.04-23.27-0.1-46.54-0.12-69.82c-0.02-16.24-0.02-32.48,0.03-48.72c0-1.17-0.66-2.56,0.6-3.55
		c0.05,23.38,0.11,46.76,0.14,70.14c0.02,15.97,0,31.94-0.04,47.91C294.67,416.61,295.14,418.09,294.06,419.3z"/>
</g>
</svg>
